<?xml version="1.0" encoding="utf-8"?>
<!-- Generator: Adobe Illustrator 18.1.0, SVG Export Plug-In . SVG Version: 6.00 Build 0)  -->
<svg version="1.1" id="Capa_1" xmlns="http://www.w3.org/2000/svg" xmlns:xlink="http://www.w3.org/1999/xlink" x="0px" y="0px"
	 viewBox="0 0 50 50" enable-background="new 0 0 50 50" xml:space="preserve">
<path id="YouTube" fill="#A0A0A0" d="M39.4,36.6h-2.7v-1.6c0-0.7,0.6-1.3,1.3-1.3h0.2c0.7,0,1.3,0.6,1.3,1.3L39.4,36.6z M29.1,33.2
	c-0.7,0-1.3,0.4-1.3,1.1V42c0,0.6,0.6,1.1,1.3,1.1c0.7,0,1.3-0.4,1.3-1.1v-7.8C30.4,33.6,29.8,33.2,29.1,33.2z M45.8,28.8v14.7
	c0,3.6-3.1,6.4-6.8,6.4H11c-3.8,0-6.8-2.9-6.8-6.4V28.8c0-3.6,3.1-6.4,6.8-6.4h28.1C42.8,22.4,45.8,25.3,45.8,28.8z M12.8,45.2V29.6
	h3.5v-2.3H7.1v2.3h2.9v15.6H12.8z M23.3,31.9h-2.9v8.3c0,1.2,0.1,1.8,0,2c-0.2,0.7-1.3,1.3-1.7,0.1c-0.1-0.2,0-0.9,0-2v-8.3h-2.9
	v8.2c0,1.3-0.1,2.2,0,2.6c0.1,0.8,0.1,1.6,0.7,2.1c1.3,0.9,3.8-0.2,4.4-1.5v1.7h2.3V31.9L23.3,31.9z M32.6,41.4v-6.9
	c0-2.6-1.9-4.2-4.7-2.1v-5.1H25v17.7l2.4-0.1l0.2-1.1C30.6,46.7,32.6,44.8,32.6,41.4z M41.6,40.6h-2.2c0,0.1,0,0.2,0,0.3v1.2
	c0,0.7-0.6,1.2-1.2,1.2h-0.4c-0.7,0-1.2-0.6-1.2-1.2v-0.1v-1.4v-1.7h5V37c0-1.4-0.1-2.7-0.2-3.5c-0.3-2.5-3.8-2.9-5.6-1.6
	c-0.6,0.4-0.9,0.9-1.2,1.6c-0.2,0.7-0.4,1.7-0.4,2.9v4.1C34.3,47.4,42.6,46.4,41.6,40.6z M30.4,18.2c0.2,0.4,0.4,0.7,0.7,0.9
	c0.3,0.2,0.7,0.3,1.2,0.3c0.4,0,0.8-0.1,1.1-0.3c0.3-0.2,0.6-0.6,0.8-1.1l-0.1,1.1h3.2V5.4h-2.6v10.7c0,0.6-0.5,1.1-1.1,1.1
	c-0.6,0-1.1-0.5-1.1-1.1V5.4h-2.7v9.2c0,1.2,0,1.9,0.1,2.4C30.2,17.4,30.3,17.8,30.4,18.2z M20.7,10.4c0-1.3,0.1-2.3,0.3-3.1
	c0.2-0.7,0.6-1.3,1.2-1.8c0.6-0.4,1.3-0.7,2.2-0.7c0.7,0,1.4,0.2,1.9,0.4c0.6,0.3,0.9,0.7,1.2,1.1s0.5,0.9,0.6,1.4s0.2,1.2,0.2,2.2
	v3.5c0,1.3-0.1,2.2-0.2,2.8c-0.1,0.6-0.3,1.2-0.6,1.7c-0.3,0.5-0.7,0.9-1.2,1.2c-0.5,0.2-1.1,0.4-1.8,0.4c-0.7,0-1.3-0.1-1.9-0.3
	c-0.5-0.2-0.9-0.6-1.2-0.9c-0.3-0.4-0.5-0.9-0.6-1.6c-0.1-0.6-0.2-1.5-0.2-2.7L20.7,10.4L20.7,10.4z M23.2,15.9
	c0,0.8,0.6,1.4,1.3,1.4s1.3-0.6,1.3-1.4V8.6c0-0.8-0.6-1.4-1.3-1.4s-1.3,0.6-1.3,1.4V15.9z M14.3,19.6h3.1V9l3.6-9h-3.3l-1.9,6.7
	L13.7,0h-3.3l3.8,9.1V19.6z"/>
</svg>
