<?xml version="1.0" encoding="utf-8"?>
<!-- Generator: Adobe Illustrator 18.1.0, SVG Export Plug-In . SVG Version: 6.00 Build 0)  -->
<svg version="1.1" id="圖層_2" xmlns="http://www.w3.org/2000/svg" xmlns:xlink="http://www.w3.org/1999/xlink" x="0px" y="0px"
	 viewBox="0 0 140 25" enable-background="new 0 0 140 25" xml:space="preserve">
<path fill="#1A2593" d="M61.3,5.8l0,13.2h-2.9c-1.9,0-2.7-0.1-3.9-1.5l-7.3-8.3C47.1,9.1,47,9,46.9,9l0,9.9h-2.7V5.8l2.4,0
	c2.9,0,3.5,0.4,4.6,1.7l7.1,8c0.1,0.1,0.2,0.1,0.3,0.1l0-9.9L61.3,5.8L61.3,5.8z M40,7.7l-6.9,0c-2.8,0-3.1,1.2-3.1,2.4v1.1h10.6
	l-0.8,1.5C39.6,13,39.3,13,39,13l-9,0v1.8c0,1.5,0.8,2.2,3.1,2.2h8.7L41,18.6c-0.2,0.3-0.4,0.4-0.7,0.4l-8.6,0
	c-4.3,0-6.5-1.4-6.5-4.8v-3.6c0-3.2,2.1-4.7,6.5-4.7l9.9,0l-0.8,1.5C40.5,7.6,40.3,7.7,40,7.7L40,7.7z M79.2,7.7l-6.9,0
	c-2.8,0-3.1,1.2-3.1,2.4v1.1h10.6L79,12.7C78.8,13,78.6,13,78.3,13l-9,0v1.8c0,1.5,0.8,2.2,3.1,2.2H81l-0.8,1.5
	c-0.2,0.3-0.4,0.4-0.7,0.4l-8.6,0c-4.3,0-6.5-1.4-6.5-4.8v-3.6c0-3.2,2.1-4.7,6.5-4.7l9.9,0L80,7.3C79.8,7.6,79.6,7.7,79.2,7.7
	L79.2,7.7z M90.5,10.2l4.5,1.4c4.3,1.4,4.9,2.8,4.9,4c0,1.9-1.7,3.3-6.3,3.3l-11.3,0l0.8-1.5c0.2-0.3,0.4-0.4,0.7-0.4h8
	c2.3,0,2.7-0.5,2.7-1c0-0.7-0.6-0.9-2.4-1.5l-4.5-1.4c-4.3-1.4-4.9-2.9-4.9-4c0-1.9,1.7-3.3,6.3-3.3l10.1,0l-0.8,1.5
	c-0.2,0.3-0.4,0.4-0.7,0.4l-6.8,0c-2.4,0-2.7,0.5-2.7,1C88.1,9.4,88.6,9.7,90.5,10.2L90.5,10.2z M128.5,10.2l4.5,1.4
	c4.3,1.4,4.9,2.8,4.9,4c0,1.9-1.7,3.3-6.3,3.3h-9.8v0l0,0l-13.3,0l0.8-1.5c0.2-0.3,0.4-0.4,0.7-0.4h5.2l-4.8-8.2
	c-0.1,0-0.2,0-0.4,0.2l-5.8,9.9h-4.7l7-11.1c1-1.6,2.1-2.1,4.2-2.1h2.7l7.1,11.3h9.2c2.3,0,2.7-0.5,2.7-1c0-0.7-0.6-0.9-2.4-1.5
	l-4.5-1.4c-4.3-1.4-4.9-2.9-4.9-4c0-1.9,1.7-3.3,6.3-3.3l10.1,0l-0.8,1.5c-0.2,0.3-0.4,0.4-0.7,0.4l-6.8,0c-2.3,0-2.7,0.5-2.7,1
	C126.1,9.4,126.7,9.7,128.5,10.2L128.5,10.2z M3,18.3v-6.2h6.4v6.2H3L3,18.3z M29.7,22.8c0.1,0.1,0,0.1,0,0.1
	c-0.1,0.1-0.3,0.1-0.5,0c-7-1.7-14-6.7-16.4-10.2c-0.4-0.5-0.5-0.9-0.4-1.2c0-0.3,0.3-0.6,0.9-0.9c1.7-0.8,4.7-2.5,4-4.6
	c-1.1-3-7.1-3-11.8-1.6c-1,0.3-2.1,0.8-3.1,1.4C2.2,6,2,6,2,5.8c0,0,0.1-0.7,0.1-0.7c0.1-0.3,0.4-0.6,0.7-0.7
	c7.5-3.7,19.3-3.1,20.4,1c0.7,2.8-1.8,4.5-4.2,5.6c-0.6,0.3-1,0.6-1,0.9c0,0.4,0.1,0.8,0.6,1.5C20.7,16.5,25.1,20.5,29.7,22.8
	L29.7,22.8z"/>
</svg>
