<?xml version="1.0" encoding="utf-8"?>
<!-- Generator: Adobe Illustrator 18.1.0, SVG Export Plug-In . SVG Version: 6.00 Build 0)  -->
<svg version="1.1" id="圖層_2" xmlns="http://www.w3.org/2000/svg" xmlns:xlink="http://www.w3.org/1999/xlink" x="0px" y="0px"
	 viewBox="0 0 50 250" enable-background="new 0 0 50 250" xml:space="preserve">
<g>
	<g>
		<path fill="#B4B4B4" d="M15.8,153.9c-1.2,0-2.2,0.4-3,1.3c-0.8,0.8-1.2,1.8-1.2,2.9s0.4,2.2,1.3,3c0.8,0.8,1.8,1.3,3,1.3
			s2.2-0.4,3-1.3c0.8-0.8,1.3-1.8,1.3-3s-0.4-2.2-1.3-3C18,154.3,17,153.9,15.8,153.9z"/>
		<path fill="#B4B4B4" d="M25.5,148.5c-1.7-1.7-3.6-3-5.7-4c-2.2-1-4.4-1.6-6.7-1.8H13c-0.3,0-0.7,0.2-1,0.3
			c-0.3,0.3-0.3,0.7-0.3,1.1v3c0,0.3,0.2,0.7,0.3,1c0.2,0.3,0.6,0.4,0.9,0.4c3.3,0.3,6.2,1.7,8.6,4c2.3,2.3,3.7,5.3,4,8.6
			c0,0.3,0.2,0.7,0.4,0.9c0.3,0.3,0.6,0.3,1,0.3h3c0.4,0,0.7-0.2,1-0.5c0.3-0.3,0.4-0.7,0.3-1.1c-0.2-2.3-0.7-4.6-1.8-6.7
			C28.5,152,27.2,150.2,25.5,148.5z"/>
		<path fill="#B4B4B4" d="M39.8,149.9c-1.5-3.5-3.7-6.6-6.5-9.3c-2.7-2.8-5.8-4.8-9.3-6.5c-3.5-1.5-7.2-2.4-11-2.7l0,0
			c-0.3,0-0.7,0.2-1,0.4c-0.3,0.3-0.4,0.7-0.4,1.1v3.2c0,0.3,0.2,0.7,0.4,1s0.6,0.4,0.9,0.4c3.2,0.3,6.1,0.9,8.9,2.3s5.3,3,7.3,5.1
			c2.1,2.1,3.8,4.5,5.1,7.3c1.3,2.8,2,5.7,2.3,9c0,0.3,0.2,0.7,0.4,0.9c0.2,0.3,0.7,0.4,1,0.4H41c0.4,0,0.8-0.2,1-0.4
			c0.3-0.3,0.4-0.7,0.4-1.1C42.3,157.1,41.3,153.4,39.8,149.9z"/>
	</g>
</g>
<g>
	<polygon fill="#B4B4B4" points="31.4,22.5 35.4,22.5 35.4,26.5 37.4,26.5 37.4,22.5 41.4,22.5 41.4,20.5 37.4,20.5 37.4,16.4 
		35.4,16.4 35.4,20.5 31.4,20.5 	"/>
	<path fill="#B4B4B4" d="M20.1,38.4c6.9,0,10.6-3.8,10.6-7.6c0-2.7-1.6-4.2-3.3-5.6l-1.5-1.2c-0.4-0.3-1.1-0.8-1.1-1.8
		c0-0.9,0.7-1.5,1.1-1.9c1.7-1.3,3.3-2.8,3.3-5.7c0-3.1-1.9-4.7-2.8-5.4h2.5l2.7-1.7h-7.9c-2.2,0-5.3,0.5-7.6,2.4
		c-1.8,1.4-2.6,3.5-2.6,5.3c0,3.2,2.4,6.3,6.7,6.3c0.4,0,0.8-0.1,1.3-0.1c-0.2,0.5-0.4,0.9-0.4,1.6c0,1.3,0.6,2,1.2,2.7
		c-1.8,0.2-5.2,0.3-7.7,1.8c-2.3,1.4-3.1,3.5-3.1,4.9C11.5,35.6,14.3,38.4,20.1,38.4z M22,20.6c-3.5,0-5-4.4-5-7.2
		c0-1.1,0.3-2.2,0.9-3c0.7-0.8,1.8-1.3,2.7-1.3c3.3,0,5.1,4.5,5.1,7.3c0,0.7-0.1,2-1,2.9C24.1,20.1,23,20.6,22,20.6z M18.5,27.7
		c1.7-0.6,3.8-0.7,4.3-0.7s0.7,0,0.9,0.1c3.1,2.2,4.3,3.3,4.3,5.3c0,2.5-2,4.3-5.9,4.3c-4.3,0-7.1-2.1-7.1-4.9
		C15,28.9,17.6,28,18.5,27.7z"/>
</g>
<g>
	<g>
		<path fill="#B4B4B4" d="M41.2,54c-1.1,0.5-2.3,0.8-3.7,1c1.3-0.8,2.3-2,2.8-3.5c-1.3,0.7-2.6,1.3-4,1.5c-1.2-1.3-2.8-2-4.7-2
			c-3.5,0-6.3,2.8-6.3,6.3c0,0.5,0.1,1,0.2,1.5c-5.3-0.3-9.9-2.8-13.2-6.7c-0.6,0.9-0.8,2-0.8,3.2c0,2.3,1.1,4.2,2.8,5.3
			c-1.1-0.1-2-0.3-2.8-0.8v0.1c0,3.1,2.3,5.7,5.1,6.2c-0.6,0.2-1.1,0.3-1.7,0.3c-0.4,0-0.8-0.1-1.2-0.2c0.8,2.5,3.2,4.4,5.9,4.4
			c-2.2,1.8-4.9,2.8-7.9,2.8c-0.5,0-1,0-1.5-0.1c2.8,1.8,6.2,2.8,9.7,2.8c11.7,0,18.1-9.7,18.1-18.1v-0.8
			C39.2,56.3,40.3,55.3,41.2,54z"/>
	</g>
</g>
<g>
	<path fill="#B4B4B4" d="M32.9,89.6H29c-4.4,0-7.2,2.8-7.2,7.3v3.4h-3.9c-0.3,0-0.7,0.3-0.7,0.7v4.9c0,0.3,0.3,0.6,0.7,0.6h3.9v12.3
		c0,0.3,0.3,0.6,0.7,0.6h5.1c0.3,0,0.7-0.3,0.7-0.6v-12.3h4.5c0.3,0,0.7-0.3,0.7-0.6V101c0-0.2-0.1-0.3-0.2-0.4
		c-0.2-0.2-0.3-0.3-0.4-0.3h-4.5v-2.8c0-1.4,0.3-2.1,2.2-2.1h2.7c0.3,0,0.7-0.3,0.7-0.7v-4.6C33.6,89.9,33.3,89.6,32.9,89.6z"/>
</g>
<polygon fill="#1E70FF" points="35.7,188.8 34,187.1 34,187.1 26.3,179.4 24.7,181 31.3,187.8 10.3,187.8 10.3,190.3 30.9,190.3 
	24.7,196.5 26.3,198.1 34,190.4 34,190.4 "/>
<path fill="#292929" stroke="#292929" stroke-miterlimit="10" d="M13.3,221.9c0,5,4.1,9,9,9c1.7,0,3.3-0.5,4.7-1.3l12.9,14.6
	l1.8-1.7l-12.8-14.4c1.4-1.6,2.3-3.8,2.3-6.1c0-5-4.1-9-9-9S13.3,216.9,13.3,221.9z M15.7,221.9c0-3.6,2.9-6.5,6.5-6.5
	s6.5,2.9,6.5,6.5c0,3.6-2.9,6.5-6.5,6.5S15.7,225.5,15.7,221.9z"/>
</svg>
