<?xml version="1.0" encoding="utf-8"?>
<!-- Generator: Adobe Illustrator 18.1.0, SVG Export Plug-In . SVG Version: 6.00 Build 0)  -->
<svg version="1.1" id="圖層_1" xmlns="http://www.w3.org/2000/svg" xmlns:xlink="http://www.w3.org/1999/xlink" x="0px" y="0px"
	 viewBox="0 0 75.3 50" enable-background="new 0 0 75.3 50" xml:space="preserve">
<g>
	<g>
		<path fill="#FB3024" d="M55.3,23.1c-0.4,0-0.8,0.2-1.2,0.6v8.8c0.4,0.4,0.8,0.6,1.2,0.6c0.7,0,1-0.6,1-1.9v-6.2
			C56.4,23.8,56,23.1,55.3,23.1L55.3,23.1z M55.3,23.1"/>
		<path fill="#FB3024" d="M64.1,23.1c-0.8,0-1.2,0.7-1.2,2v1.3h2.4v-1.3C65.3,23.8,64.9,23.1,64.1,23.1L64.1,23.1z M64.1,23.1"/>
		<path fill="#FB3024" d="M69.1,13.2c-1.5-1.7-3.2-1.7-4-1.8C59.6,11,51.3,11,51.3,11h0c0,0-8.3,0-13.8,0.4c-0.8,0.1-2.5,0.1-4,1.8
			c-1.2,1.3-1.6,4.3-1.6,4.3s-0.4,3.5-0.4,6.9v3.3c0,3.5,0.4,6.9,0.4,6.9s0.4,3,1.6,4.3c1.5,1.7,3.5,1.7,4.4,1.8
			c3.2,0.3,13.5,0.4,13.5,0.4s8.3,0,13.8-0.4c0.8-0.1,2.5-0.1,4-1.8c1.2-1.3,1.6-4.3,1.6-4.3s0.4-3.5,0.4-6.9v-3.3
			c0-3.5-0.4-6.9-0.4-6.9S70.3,14.5,69.1,13.2L69.1,13.2z M40.2,35.4h-2.7V18.7h-2.8V16h8.4v2.7h-2.9V35.4z M49.7,35.4h-2.4v-1.6
			c-1,1.2-1.9,1.8-2.7,1.8c-0.8,0-1.3-0.3-1.5-1.1c-0.1-0.4-0.2-1.1-0.2-2.1V20.9h2.4v10.6c0,0.6,0,0.9,0,1c0.1,0.4,0.2,0.6,0.6,0.6
			c0.5,0,1-0.4,1.5-1.2v-11h2.4V35.4z M58.8,31c0,1.3-0.1,2.3-0.2,2.9c-0.3,1.1-1,1.6-1.9,1.6c-0.9,0-1.7-0.5-2.5-1.6v1.4h-2.4V16
			h2.4v6.3c0.8-1,1.6-1.6,2.5-1.6c1,0,1.6,0.6,1.9,1.6c0.2,0.6,0.2,1.5,0.2,2.9V31z M67.7,28.6h-4.8v2.6c0,1.3,0.4,2,1.2,2
			c0.6,0,0.9-0.4,1.1-1.1c0-0.1,0.1-0.7,0.1-1.8h2.4v0.4c0,0.8,0,1.4-0.1,1.7c-0.1,0.6-0.3,1.1-0.6,1.6c-0.7,1-1.6,1.6-2.9,1.6
			c-1.3,0-2.2-0.5-2.9-1.5c-0.5-0.7-0.8-1.9-0.8-3.4v-5.1c0-1.5,0.2-2.7,0.7-3.4c0.7-1,1.6-1.5,2.9-1.5c1.2,0,2.2,0.5,2.8,1.5
			c0.5,0.7,0.7,1.9,0.7,3.4V28.6z M67.7,28.6"/>
	</g>
	<g>
		<path fill="#1D1D1B" d="M10.3,35.7v-7.9l3.2-11.6h-2.7L9,23.9l-1.9-7.7H4.3C4.9,18,5.4,19.8,6,21.6c0.8,2.7,1.4,4.8,1.6,6.2v7.9
			H10.3z M10.3,35.7"/>
		<path fill="#1D1D1B" d="M16.5,35.9c1.2,0,2.1-0.5,2.8-1.5c0.5-0.7,0.7-1.9,0.7-3.4v-5.1c0-1.6-0.2-2.7-0.7-3.4
			c-0.7-1-1.6-1.5-2.8-1.5c-1.2,0-2.1,0.5-2.8,1.5c-0.5,0.7-0.7,1.9-0.7,3.4V31c0,1.6,0.2,2.7,0.7,3.4
			C14.4,35.4,15.3,35.9,16.5,35.9L16.5,35.9z M15.3,25.4c0-1.4,0.4-2,1.1-2c0.8,0,1.1,0.7,1.1,2v6.1c0,1.4-0.4,2-1.1,2
			c-0.8,0-1.1-0.7-1.1-2V25.4z M15.3,25.4"/>
		<path fill="#1D1D1B" d="M28.7,35.7V21.2h-2.4v11.1c-0.5,0.8-1,1.2-1.5,1.2c-0.3,0-0.5-0.2-0.6-0.6c0-0.1,0-0.4,0-1V21.2h-2.4v11.5
			c0,1,0.1,1.7,0.2,2.2c0.2,0.7,0.8,1.1,1.5,1.1c0.9,0,1.8-0.6,2.7-1.8v1.6H28.7z M28.7,35.7"/>
	</g>
</g>
</svg>
