<?xml version="1.0" encoding="utf-8"?>
<!-- Generator: Adobe Illustrator 18.1.0, SVG Export Plug-In . SVG Version: 6.00 Build 0)  -->
<svg version="1.1" id="圖層_1" xmlns="http://www.w3.org/2000/svg" xmlns:xlink="http://www.w3.org/1999/xlink" x="0px" y="0px"
	 viewBox="0 0 50 50" enable-background="new 0 0 50 50" xml:space="preserve">
<linearGradient id="SVGID_1_" gradientUnits="userSpaceOnUse" x1="25" y1="-5.258852e-005" x2="25" y2="50.0001">
	<stop  offset="0" style="stop-color:#FFFFFF"/>
	<stop  offset="1" style="stop-color:#666666"/>
</linearGradient>
<path fill="url(#SVGID_1_)" d="M44.9,0H5.1C2.3,0,0,2.3,0,5.1v39.8C0,47.7,2.3,50,5.1,50h39.8c2.8,0,5.1-2.3,5.1-5.1V5.1
	C50,2.3,47.7,0,44.9,0L44.9,0z M32.1,29.1c3.7,0,6.7,3,6.7,6.7c0,3.7-3,6.7-6.7,6.7H21.9c-1.8,0-3.6-0.4-5.1-1.2
	c-1.8-0.9-2.9-2.2-3.6-3.1c-0.5-0.6-0.9-1.4-1.2-2.2c-0.3-0.8-0.5-1.5-0.7-2.3c-0.1-0.6-0.2-1.2-0.2-1.7V14.3c0-3.7,3-6.7,6.6-6.7
	c3.7,0,6.7,3,6.7,6.7v1.1h7.6c3.7,0,6.7,3,6.7,6.7c0,3.7-3,6.6-6.7,6.6h-7.6v0.5H32.1z M32.1,29.1"/>
<path fill="#38D6FF" d="M32.1,25.6c2,0,3.7-1.6,3.7-3.7c0-2-1.6-3.7-3.7-3.7H21.6v-4c0-2-1.6-3.7-3.7-3.7c-2,0-3.7,1.6-3.7,3.7v17.6
	c0,0.2,0,0.6,0.1,1.2c0.1,0.5,0.2,1.1,0.5,1.7c0.2,0.5,0.5,1,0.8,1.6c0.6,0.8,1.4,1.6,2.5,2.2c1.1,0.6,2.4,0.8,3.7,0.8h10.3
	c2,0,3.7-1.6,3.7-3.7c0-2-1.6-3.7-3.7-3.7H21.9c-0.1,0-0.2,0-0.3,0c0-0.1,0-0.1,0-0.2c0,0,0-0.1,0-0.1v-6.2H32.1z M32.1,25.6"/>
</svg>
