<?xml version="1.0" encoding="utf-8"?>
<!-- Generator: Adobe Illustrator 18.1.0, SVG Export Plug-In . SVG Version: 6.00 Build 0)  -->
<svg version="1.1" id="圖層_1" xmlns="http://www.w3.org/2000/svg" xmlns:xlink="http://www.w3.org/1999/xlink" x="0px" y="0px"
	 viewBox="0 0 50 50" enable-background="new 0 0 50 50" xml:space="preserve">
<path fill="#F78422" d="M0,0v50h50V0H0z M12.1,43C9.3,43,7,40.8,7,38s2.3-5.1,5.1-5.1s5.1,2.3,5.1,5.1S14.8,43,12.1,43z M23.9,43
	c0-9-7.9-17-16.9-17v-7.1C20,18.9,31,30,31,43H23.9z M35.9,43c0-8-3.1-15-8.5-20.5C22,17.1,15,14,7,14V7c10,0,18.7,3.8,25.4,10.6
	C39.2,24.3,43,33,43,43H35.9z"/>
</svg>
