<?xml version="1.0" encoding="utf-8"?>
<!-- Generator: Adobe Illustrator 18.1.0, SVG Export Plug-In . SVG Version: 6.00 Build 0)  -->
<svg version="1.1" xmlns="http://www.w3.org/2000/svg" xmlns:xlink="http://www.w3.org/1999/xlink" x="0px" y="0px"
	 viewBox="0 0 50 50" enable-background="new 0 0 50 50" xml:space="preserve">
<g id="圖層_1">
	<g>
		<path fill-rule="evenodd" clip-rule="evenodd" fill="#D82E24" d="M47.3,0H2.7C1.2,0,0,1.2,0,2.7v44.7C0,48.8,1.2,50,2.7,50h44.7
			c1.5,0,2.7-1.2,2.7-2.7V2.7C50,1.2,48.8,0,47.3,0L47.3,0z M16.5,45.5c-7.7,0-11.5-3.7-11.5-7.6c0-1.9,1-4.7,4.1-6.5
			c3.3-2,7.8-2.3,10.2-2.5c-0.8-1-1.6-2-1.6-3.6c0-0.9,0.3-1.4,0.5-2.1c-0.6,0.1-1.2,0.1-1.7,0.1c-5.7,0-8.9-4.2-8.9-8.4
			c0-2.5,1.1-5.2,3.4-7.2c3-2.5,7.2-3.2,10.1-3.2h10.5l-3.5,2.2H25c1.2,1,3.8,3.2,3.8,7.2c0,4-2.2,5.8-4.5,7.6
			c-0.7,0.7-1.5,1.4-1.5,2.6c0,1.2,0.8,1.8,1.4,2.3l1.9,1.5c2.3,2,4.5,3.8,4.5,7.5C30.6,40.4,25.7,45.5,16.5,45.5L16.5,45.5z
			 M44.9,24.3h-5.4v5.4h-2.6v-5.4h-5.3v-2.7h5.3v-5.4h2.6v5.4h5.4V24.3z M44.9,24.3"/>
		<path fill-rule="evenodd" clip-rule="evenodd" fill="#D82E24" d="M24.1,16.4c0-3.9-2.3-9.8-6.7-9.8c-1.4,0-2.9,0.7-3.7,1.8
			c-0.9,1.1-1.2,2.6-1.2,4c0,3.6,2.1,9.5,6.7,9.5c1.3,0,2.8-0.6,3.6-1.5C24,19,24.1,17.3,24.1,16.4L24.1,16.4z M24.1,16.4"/>
		<path fill-rule="evenodd" clip-rule="evenodd" fill="#D82E24" d="M21.2,30.4c-0.4-0.1-0.7-0.1-1.2-0.1c-0.5,0-3.4,0.1-5.6,0.9
			c-1.2,0.4-4.6,1.7-4.6,5.5c0,3.8,3.7,6.5,9.4,6.5c5.1,0,7.8-2.5,7.8-5.8C27,34.8,25.2,33.3,21.2,30.4L21.2,30.4z M21.2,30.4"/>
	</g>
</g>
<g id="圖層_2">
</g>
<g id="圖層_3">
</g>
<g id="圖層_4">
</g>
<g id="圖層_5">
</g>
<g id="圖層_6">
</g>
</svg>
